<svg xmlns="http://www.w3.org/2000/svg" xmlns:xlink="http://www.w3.org/1999/xlink" width="453" zoomAndPan="magnify" viewBox="0 0 339.75 85.499998" height="114" preserveAspectRatio="xMidYMid meet" version="1.0"><defs><g/><clipPath id="952468777a"><path d="M 0.863281 0 L 85.621094 0 L 85.621094 84.757812 L 0.863281 84.757812 Z M 0.863281 0 " clip-rule="nonzero"/></clipPath></defs><g fill="#ffbd59" fill-opacity="1"><g transform="translate(96.237934, 56.175028)"><g><path d="M 3.453125 0 L 3.453125 -26.5625 L 14.78125 -26.5625 C 16.414062 -26.5625 17.800781 -26.300781 18.9375 -25.78125 C 20.070312 -25.269531 20.925781 -24.535156 21.5 -23.578125 C 22.082031 -22.628906 22.375 -21.507812 22.375 -20.21875 C 22.375 -19.039062 22.085938 -18.003906 21.515625 -17.109375 C 20.953125 -16.210938 20.140625 -15.492188 19.078125 -14.953125 L 19.078125 -14.5625 C 20.742188 -14.132812 22.03125 -13.34375 22.9375 -12.1875 C 23.851562 -11.039062 24.3125 -9.628906 24.3125 -7.953125 C 24.3125 -5.410156 23.539062 -3.445312 22 -2.0625 C 20.46875 -0.6875 18.195312 0 15.1875 0 Z M 13.703125 -15.96875 C 16.140625 -15.96875 17.359375 -17.070312 17.359375 -19.28125 C 17.359375 -20.40625 17.054688 -21.238281 16.453125 -21.78125 C 15.847656 -22.332031 14.929688 -22.609375 13.703125 -22.609375 L 8.703125 -22.609375 L 8.703125 -15.96875 Z M 14.65625 -4.15625 C 17.550781 -4.15625 19 -5.472656 19 -8.109375 C 19 -10.742188 17.550781 -12.0625 14.65625 -12.0625 L 8.703125 -12.0625 L 8.703125 -4.15625 Z M 14.65625 -4.15625 "/></g></g></g><g fill="#ffbd59" fill-opacity="1"><g transform="translate(122.212837, 56.175028)"><g><path d="M 11.640625 0.375 C 9.679688 0.375 7.957031 -0.0234375 6.46875 -0.828125 C 4.988281 -1.628906 3.835938 -2.804688 3.015625 -4.359375 C 2.203125 -5.921875 1.796875 -7.804688 1.796875 -10.015625 C 1.796875 -12.210938 2.203125 -14.09375 3.015625 -15.65625 C 3.835938 -17.21875 4.988281 -18.398438 6.46875 -19.203125 C 7.957031 -20.015625 9.679688 -20.421875 11.640625 -20.421875 C 13.609375 -20.421875 15.332031 -20.015625 16.8125 -19.203125 C 18.289062 -18.398438 19.441406 -17.21875 20.265625 -15.65625 C 21.097656 -14.09375 21.515625 -12.210938 21.515625 -10.015625 C 21.515625 -7.804688 21.097656 -5.921875 20.265625 -4.359375 C 19.441406 -2.804688 18.289062 -1.628906 16.8125 -0.828125 C 15.332031 -0.0234375 13.609375 0.375 11.640625 0.375 Z M 11.640625 -3.890625 C 14.753906 -3.890625 16.3125 -5.929688 16.3125 -10.015625 C 16.3125 -12.128906 15.910156 -13.679688 15.109375 -14.671875 C 14.316406 -15.660156 13.160156 -16.15625 11.640625 -16.15625 C 8.523438 -16.15625 6.96875 -14.109375 6.96875 -10.015625 C 6.96875 -5.929688 8.523438 -3.890625 11.640625 -3.890625 Z M 11.640625 -3.890625 "/></g></g></g><g fill="#ffbd59" fill-opacity="1"><g transform="translate(145.499428, 56.175028)"><g><path d="M 11.640625 0.375 C 9.679688 0.375 7.957031 -0.0234375 6.46875 -0.828125 C 4.988281 -1.628906 3.835938 -2.804688 3.015625 -4.359375 C 2.203125 -5.921875 1.796875 -7.804688 1.796875 -10.015625 C 1.796875 -12.210938 2.203125 -14.09375 3.015625 -15.65625 C 3.835938 -17.21875 4.988281 -18.398438 6.46875 -19.203125 C 7.957031 -20.015625 9.679688 -20.421875 11.640625 -20.421875 C 13.609375 -20.421875 15.332031 -20.015625 16.8125 -19.203125 C 18.289062 -18.398438 19.441406 -17.21875 20.265625 -15.65625 C 21.097656 -14.09375 21.515625 -12.210938 21.515625 -10.015625 C 21.515625 -7.804688 21.097656 -5.921875 20.265625 -4.359375 C 19.441406 -2.804688 18.289062 -1.628906 16.8125 -0.828125 C 15.332031 -0.0234375 13.609375 0.375 11.640625 0.375 Z M 11.640625 -3.890625 C 14.753906 -3.890625 16.3125 -5.929688 16.3125 -10.015625 C 16.3125 -12.128906 15.910156 -13.679688 15.109375 -14.671875 C 14.316406 -15.660156 13.160156 -16.15625 11.640625 -16.15625 C 8.523438 -16.15625 6.96875 -14.109375 6.96875 -10.015625 C 6.96875 -5.929688 8.523438 -3.890625 11.640625 -3.890625 Z M 11.640625 -3.890625 "/></g></g></g><g fill="#ffbd59" fill-opacity="1"><g transform="translate(168.786019, 56.175028)"><g><path d="M 2.890625 0 L 2.890625 -28.078125 L 7.921875 -28.078125 L 7.921875 -12.5 L 8.40625 -12.5 L 14.203125 -20.03125 L 19.3125 -20.03125 L 19.3125 -19.625 L 12.5 -10.828125 L 20.078125 -0.453125 L 20.078125 0 L 14.765625 0 L 8.40625 -8.453125 L 7.921875 -8.453125 L 7.921875 0 Z M 2.890625 0 "/></g></g></g><g fill="#ffbd59" fill-opacity="1"><g transform="translate(188.893869, 56.175028)"><g><path d="M 5.390625 -22.4375 C 4.484375 -22.4375 3.742188 -22.710938 3.171875 -23.265625 C 2.609375 -23.816406 2.328125 -24.523438 2.328125 -25.390625 C 2.328125 -26.253906 2.609375 -26.960938 3.171875 -27.515625 C 3.742188 -28.066406 4.484375 -28.34375 5.390625 -28.34375 C 5.992188 -28.34375 6.53125 -28.210938 7 -27.953125 C 7.476562 -27.703125 7.847656 -27.351562 8.109375 -26.90625 C 8.367188 -26.46875 8.5 -25.960938 8.5 -25.390625 C 8.5 -24.828125 8.367188 -24.320312 8.109375 -23.875 C 7.847656 -23.425781 7.476562 -23.070312 7 -22.8125 C 6.53125 -22.5625 5.992188 -22.4375 5.390625 -22.4375 Z M 2.890625 0 L 2.890625 -20.03125 L 7.921875 -20.03125 L 7.921875 0 Z M 2.890625 0 "/></g></g></g><g fill="#ffbd59" fill-opacity="1"><g transform="translate(199.683443, 56.175028)"><g><path d="M 2.890625 0 L 2.890625 -20.03125 L 7.71875 -20.03125 L 7.71875 -17.09375 L 8.109375 -17 C 9.347656 -19.28125 11.367188 -20.421875 14.171875 -20.421875 C 16.484375 -20.421875 18.179688 -19.789062 19.265625 -18.53125 C 20.347656 -17.269531 20.890625 -15.4375 20.890625 -13.03125 L 20.890625 0 L 15.859375 0 L 15.859375 -12.40625 C 15.859375 -13.738281 15.59375 -14.695312 15.0625 -15.28125 C 14.53125 -15.875 13.675781 -16.171875 12.5 -16.171875 C 11.0625 -16.171875 9.9375 -15.703125 9.125 -14.765625 C 8.320312 -13.835938 7.921875 -12.375 7.921875 -10.375 L 7.921875 0 Z M 2.890625 0 "/></g></g></g><g fill="#ffbd59" fill-opacity="1"><g transform="translate(223.151677, 56.175028)"><g><path d="M 10.390625 8.5 C 7.085938 8.5 4.644531 8.015625 3.0625 7.046875 C 1.488281 6.078125 0.703125 4.726562 0.703125 3 C 0.703125 1.945312 1.035156 1.082031 1.703125 0.40625 C 2.378906 -0.257812 3.347656 -0.707031 4.609375 -0.9375 L 4.609375 -1.328125 C 3.929688 -1.734375 3.441406 -2.1875 3.140625 -2.6875 C 2.847656 -3.195312 2.703125 -3.785156 2.703125 -4.453125 C 2.703125 -6.054688 3.75 -7.140625 5.84375 -7.703125 L 5.84375 -8.078125 C 4.769531 -8.703125 3.957031 -9.46875 3.40625 -10.375 C 2.863281 -11.289062 2.59375 -12.398438 2.59375 -13.703125 C 2.59375 -15.023438 2.898438 -16.191406 3.515625 -17.203125 C 4.128906 -18.222656 5.023438 -19.015625 6.203125 -19.578125 C 7.378906 -20.140625 8.789062 -20.421875 10.4375 -20.421875 C 12.113281 -20.421875 13.445312 -20.128906 14.4375 -19.546875 C 15.0625 -20.441406 15.421875 -21.476562 15.515625 -22.65625 L 15.890625 -22.890625 L 19.515625 -22 C 19.398438 -21.039062 19.117188 -20.238281 18.671875 -19.59375 C 18.222656 -18.945312 17.523438 -18.367188 16.578125 -17.859375 L 16.578125 -17.453125 C 17.710938 -16.460938 18.28125 -15.078125 18.28125 -13.296875 C 18.28125 -12.054688 17.96875 -10.945312 17.34375 -9.96875 C 16.726562 -8.988281 15.828125 -8.210938 14.640625 -7.640625 C 13.460938 -7.078125 12.0625 -6.796875 10.4375 -6.796875 L 9.6875 -6.8125 C 9.195312 -6.832031 8.859375 -6.84375 8.671875 -6.84375 C 8.203125 -6.84375 7.835938 -6.71875 7.578125 -6.46875 C 7.316406 -6.226562 7.1875 -5.910156 7.1875 -5.515625 C 7.1875 -5.097656 7.351562 -4.769531 7.6875 -4.53125 C 8.03125 -4.289062 8.53125 -4.160156 9.1875 -4.140625 L 13.671875 -3.984375 C 18.109375 -3.847656 20.328125 -1.9375 20.328125 1.75 C 20.328125 3.039062 19.992188 4.191406 19.328125 5.203125 C 18.671875 6.210938 17.601562 7.015625 16.125 7.609375 C 14.65625 8.203125 12.742188 8.5 10.390625 8.5 Z M 10.4375 -10.3125 C 11.414062 -10.3125 12.175781 -10.597656 12.71875 -11.171875 C 13.257812 -11.742188 13.53125 -12.554688 13.53125 -13.609375 C 13.53125 -14.660156 13.257812 -15.46875 12.71875 -16.03125 C 12.175781 -16.59375 11.414062 -16.875 10.4375 -16.875 C 9.457031 -16.875 8.703125 -16.59375 8.171875 -16.03125 C 7.640625 -15.46875 7.375 -14.660156 7.375 -13.609375 C 7.375 -12.535156 7.640625 -11.71875 8.171875 -11.15625 C 8.703125 -10.59375 9.457031 -10.3125 10.4375 -10.3125 Z M 10.390625 4.84375 C 12.109375 4.84375 13.359375 4.597656 14.140625 4.109375 C 14.921875 3.628906 15.3125 3.003906 15.3125 2.234375 C 15.3125 1.609375 15.109375 1.144531 14.703125 0.84375 C 14.304688 0.550781 13.675781 0.390625 12.8125 0.359375 L 8.84375 0.1875 C 8.707031 0.1875 8.582031 0.175781 8.46875 0.15625 C 8.351562 0.144531 8.242188 0.140625 8.140625 0.140625 C 7.285156 0.140625 6.640625 0.320312 6.203125 0.6875 C 5.765625 1.050781 5.546875 1.554688 5.546875 2.203125 C 5.546875 3.046875 5.945312 3.695312 6.75 4.15625 C 7.5625 4.613281 8.773438 4.84375 10.390625 4.84375 Z M 10.390625 4.84375 "/></g></g></g><g fill="#ffbd59" fill-opacity="1"><g transform="translate(243.986098, 56.175028)"><g><path d="M 8.53125 0 L 3.453125 0 L 3.453125 -26.5625 L 9.46875 -26.5625 L 20.125 -9.453125 L 20.59375 -9.515625 L 20.59375 -26.5625 L 25.65625 -26.5625 L 25.65625 0 L 20.265625 0 L 8.984375 -18.28125 L 8.53125 -18.203125 Z M 8.53125 0 "/></g></g></g><g fill="#ffbd59" fill-opacity="1"><g transform="translate(273.103424, 56.175028)"><g><path d="M 19.796875 -8.890625 L 6.921875 -8.890625 C 7.066406 -7.140625 7.5625 -5.867188 8.40625 -5.078125 C 9.257812 -4.285156 10.414062 -3.890625 11.875 -3.890625 C 13.03125 -3.890625 13.960938 -4.101562 14.671875 -4.53125 C 15.390625 -4.957031 15.96875 -5.609375 16.40625 -6.484375 L 16.78125 -6.484375 L 20.125 -4.34375 C 19.46875 -2.9375 18.476562 -1.796875 17.15625 -0.921875 C 15.84375 -0.0546875 14.082031 0.375 11.875 0.375 C 9.8125 0.375 8.023438 -0.015625 6.515625 -0.796875 C 5.003906 -1.585938 3.835938 -2.757812 3.015625 -4.3125 C 2.203125 -5.875 1.796875 -7.773438 1.796875 -10.015625 C 1.796875 -12.285156 2.222656 -14.203125 3.078125 -15.765625 C 3.941406 -17.328125 5.109375 -18.492188 6.578125 -19.265625 C 8.046875 -20.035156 9.691406 -20.421875 11.515625 -20.421875 C 14.347656 -20.421875 16.519531 -19.664062 18.03125 -18.15625 C 19.539062 -16.65625 20.296875 -14.453125 20.296875 -11.546875 C 20.296875 -10.492188 20.257812 -9.675781 20.1875 -9.09375 Z M 15.484375 -12.140625 C 15.429688 -13.660156 15.070312 -14.769531 14.40625 -15.46875 C 13.75 -16.164062 12.785156 -16.515625 11.515625 -16.515625 C 8.972656 -16.515625 7.476562 -15.054688 7.03125 -12.140625 Z M 15.484375 -12.140625 "/></g></g></g><g fill="#ffbd59" fill-opacity="1"><g transform="translate(294.882386, 56.175028)"><g><path d="M 9.375 0.375 C 8.007812 0.375 6.753906 0.21875 5.609375 -0.09375 C 4.472656 -0.414062 3.5 -0.859375 2.6875 -1.421875 C 1.882812 -1.984375 1.289062 -2.628906 0.90625 -3.359375 L 3.703125 -6.375 L 4.09375 -6.375 C 4.757812 -5.476562 5.546875 -4.804688 6.453125 -4.359375 C 7.359375 -3.910156 8.34375 -3.6875 9.40625 -3.6875 C 10.382812 -3.6875 11.125 -3.859375 11.625 -4.203125 C 12.125 -4.554688 12.375 -5.0625 12.375 -5.71875 C 12.375 -6.226562 12.191406 -6.65625 11.828125 -7 C 11.472656 -7.34375 10.894531 -7.613281 10.09375 -7.8125 L 7.453125 -8.453125 C 5.460938 -8.921875 4.007812 -9.640625 3.09375 -10.609375 C 2.175781 -11.585938 1.71875 -12.828125 1.71875 -14.328125 C 1.71875 -15.578125 2.035156 -16.660156 2.671875 -17.578125 C 3.316406 -18.503906 4.21875 -19.207031 5.375 -19.6875 C 6.53125 -20.175781 7.875 -20.421875 9.40625 -20.421875 C 11.207031 -20.421875 12.703125 -20.160156 13.890625 -19.640625 C 15.078125 -19.117188 16.003906 -18.421875 16.671875 -17.546875 L 13.984375 -14.640625 L 13.625 -14.640625 C 13.0625 -15.273438 12.429688 -15.734375 11.734375 -16.015625 C 11.046875 -16.304688 10.269531 -16.453125 9.40625 -16.453125 C 7.425781 -16.453125 6.4375 -15.835938 6.4375 -14.609375 C 6.4375 -14.085938 6.617188 -13.660156 6.984375 -13.328125 C 7.347656 -13.003906 8 -12.738281 8.9375 -12.53125 L 11.40625 -11.984375 C 13.4375 -11.546875 14.921875 -10.847656 15.859375 -9.890625 C 16.804688 -8.929688 17.28125 -7.640625 17.28125 -6.015625 C 17.28125 -4.742188 16.960938 -3.625 16.328125 -2.65625 C 15.703125 -1.6875 14.796875 -0.9375 13.609375 -0.40625 C 12.421875 0.113281 11.007812 0.375 9.375 0.375 Z M 9.375 0.375 "/></g></g></g><g fill="#ffbd59" fill-opacity="1"><g transform="translate(313.355464, 56.175028)"><g><path d="M 13.828125 -4.78125 L 15.125 -1.046875 C 14.582031 -0.597656 13.898438 -0.25 13.078125 0 C 12.253906 0.25 11.320312 0.375 10.28125 0.375 C 8.113281 0.375 6.46875 -0.210938 5.34375 -1.390625 C 4.21875 -2.566406 3.65625 -4.285156 3.65625 -6.546875 L 3.65625 -16.0625 L 0.59375 -16.0625 L 0.59375 -20.0625 L 3.65625 -20.0625 L 3.65625 -23.953125 L 8.6875 -24.78125 L 8.6875 -20.0625 L 14.375 -20.0625 L 14.375 -16.0625 L 8.6875 -16.0625 L 8.6875 -6.90625 C 8.6875 -5.90625 8.890625 -5.175781 9.296875 -4.71875 C 9.710938 -4.269531 10.3125 -4.046875 11.09375 -4.046875 C 11.988281 -4.046875 12.769531 -4.289062 13.4375 -4.78125 Z M 13.828125 -4.78125 "/></g></g></g><g clip-path="url(#952468777a)"><path fill="#ffbd59" d="M 70.226562 35.789062 C 69.085938 41.960938 64.535156 46.941406 58.511719 48.714844 C 53.199219 50.277344 46.523438 51.757812 38.820312 52.449219 C 38.820312 52.449219 48.832031 53.121094 60.484375 51.414062 C 55.777344 55.019531 49.777344 57.179688 43.242188 57.179688 C 40.066406 57.179688 37.015625 56.671875 34.175781 55.730469 C 40.699219 56.054688 45.238281 55.75 45.238281 55.75 C 40.5625 55.328125 36.265625 54.617188 32.421875 53.773438 C 28.285156 52.867188 24.53125 50.652344 21.800781 47.414062 C 21.785156 47.394531 21.769531 47.371094 21.75 47.351562 C 34.394531 49.535156 45.816406 48.773438 45.816406 48.773438 C 36.957031 47.972656 29.457031 46.140625 23.824219 44.328125 C 19.917969 43.070312 16.988281 39.777344 16.25 35.742188 C 16.246094 35.714844 16.238281 35.691406 16.234375 35.667969 C 22.605469 41.519531 32.335938 45.257812 43.242188 45.257812 C 54.144531 45.257812 63.875 41.519531 70.246094 35.667969 C 70.242188 35.707031 70.234375 35.746094 70.226562 35.789062 Z M 17.421875 27.574219 C 17.421875 27.574219 20.742188 29.304688 21.707031 31.503906 C 22.347656 32.96875 21.789062 34.269531 21.34375 34.980469 L 19.101562 31.40625 L 20.210938 35.476562 C 19.386719 35.324219 18.050781 34.851562 17.40625 33.390625 C 16.441406 31.191406 17.421875 27.574219 17.421875 27.574219 Z M 25.4375 31.917969 C 28.292969 30.800781 32.847656 32.230469 32.847656 32.230469 C 32.847656 32.230469 30.476562 36.375 27.621094 37.492188 C 25.726562 38.234375 24.097656 37.457031 23.214844 36.851562 L 27.882812 34.175781 L 22.640625 35.382812 C 22.875 34.339844 23.542969 32.660156 25.4375 31.917969 Z M 43.242188 0 C 19.835938 0 0.863281 18.972656 0.863281 42.378906 C 0.863281 65.785156 19.835938 84.757812 43.242188 84.757812 C 66.648438 84.757812 85.621094 65.785156 85.621094 42.378906 C 85.621094 18.972656 66.648438 0 43.242188 0 " fill-opacity="1" fill-rule="nonzero"/></g></svg>